<?xml version="1.0" encoding="UTF-8"?>
<svg width="640px" height="360px" viewBox="0 0 640 360" version="1.1" xmlns="http://www.w3.org/2000/svg" xmlns:xlink="http://www.w3.org/1999/xlink">
    <!-- Generator: Sketch 52.2 (67145) - http://www.bohemiancoding.com/sketch -->
    <title>NAVER@1x</title>
    <desc>Created with Sketch.</desc>
    <defs>
        <polygon id="path-1" points="0.807279693 0 79.1447126 0 79.1447126 81.999918 0.807279693 81.999918"></polygon>
    </defs>
    <g id="NAVER" stroke="none" stroke-width="1" fill="none" fill-rule="evenodd">
        <rect fill="#FFFFFF" x="0" y="0" width="640" height="360"></rect>
        <g id="Group-8" transform="translate(105.000000, 139.000000)">
            <path d="M123.563466,8.2e-05 L91.2582739,82.000082 L118.71814,82.000082 L122.618619,71.147382 L153.58109,71.147382 L157.483216,82.000082 L184.940611,82.000082 L152.637067,8.2e-05 L123.563466,8.2e-05 Z M138.099443,25.835822 L147.308197,51.450982 L128.891511,51.450982 L138.099443,25.835822 Z" id="Fill-1" fill="#03CF5D"></path>
            <polygon id="Fill-2" fill="#03CF5D" points="272.969931 8.2e-05 272.969931 82.000082 337.982307 82.000082 337.982307 61.901882 299.216406 61.901882 299.216406 50.848282 336.770563 50.848282 336.770563 31.151882 299.216406 31.151882 299.216406 20.098282 337.174203 20.098282 337.174203 8.2e-05"></polygon>
            <polygon id="Fill-3" fill="#03CF5D" points="237.031569 8.2e-05 217.648619 53.917542 198.266492 8.2e-05 170.80745 8.2e-05 203.111818 82.000082 232.186243 82.000082 264.489787 8.2e-05"></polygon>
            <polygon id="Fill-4" fill="#03CF5D" points="56.1283448 8.2e-05 56.1283448 43.887302 25.4393602 8.2e-05 0.000164750958 8.2e-05 0.000164750958 82.000082 26.6511034 82.000082 26.6511034 38.112862 57.3400881 82.000082 82.7792835 82.000082 82.7792835 8.2e-05"></polygon>
            <g id="Group-7" transform="translate(350.095785, 0.000000)">
                <mask id="mask-2" fill="white">
                    <use xlink:href="#path-1"></use>
                </mask>
                <g id="Clip-6"></g>
                <path d="M40.3804598,38.186498 L26.2472989,38.186498 L26.2472989,20.901718 L40.3804598,20.901718 C45.1747126,20.901718 49.0620115,24.771298 49.0620115,29.543698 C49.0620115,34.316918 45.1747126,38.186498 40.3804598,38.186498 Z M58.3185441,53.868998 L60.8178161,52.828418 C70.3906705,48.839938 75.2598851,40.208618 75.2598851,29.255058 C75.2598851,18.896818 71.464023,11.233918 63.9785632,6.479558 C57.0211303,2.058938 47.9968966,-8.2e-05 35.5812644,-8.2e-05 L0.807279693,-8.2e-05 L0.807279693,81.999918 L26.6509387,81.999918 L26.6509387,59.088298 L35.9379502,59.088298 L51.687318,81.999918 L79.1455364,81.999918 L58.3185441,53.868998 Z" id="Fill-5" fill="#03CF5D" mask="url(#mask-2)"></path>
            </g>
        </g>
    </g>
</svg>